# Blender v2.79 (sub 0) OBJ File: ''
# www.blender.org
mtllib BushStubby.mtl
o Cube_Cube.004
v 0.113119 -0.047658 0.149247
v 0.104022 0.020592 0.120309
v 0.113119 -0.047658 -0.149247
v 0.104022 0.020592 -0.120309
v 0.128605 -0.050129 -0.000000
v 0.122437 0.020411 -0.000000
v 0.071513 0.047402 -0.000000
v 0.066811 0.047402 -0.059511
v 0.066811 0.047402 0.059511
v 0.156527 0.064882 -0.000000
v 0.168779 0.109164 -0.000000
v 0.139185 0.101974 -0.180019
v 0.139185 0.101974 0.180019
v 0.117529 0.060772 0.165029
v 0.117529 0.060772 -0.165029
v 0.098958 0.269144 -0.085213
v 0.105067 0.273105 0.000000
v 0.098958 0.269144 0.085213
v -0.000000 0.291968 0.000000
v -0.113119 -0.047658 0.149247
v -0.104022 0.020592 0.120309
v -0.113119 -0.047658 -0.149247
v -0.104022 0.020592 -0.120309
v -0.000000 -0.049963 -0.171681
v -0.000000 0.020581 -0.147489
v -0.000000 -0.049963 0.171681
v -0.000000 0.020581 0.147489
v -0.128605 -0.050129 -0.000000
v -0.122437 0.020411 -0.000000
v -0.000000 -0.055542 -0.000000
v -0.071513 0.047402 -0.000000
v -0.000000 0.047402 -0.066572
v -0.066811 0.047402 -0.059511
v -0.066811 0.047402 0.059511
v -0.000000 0.047402 0.066572
v -0.156527 0.064882 -0.000000
v -0.168779 0.109164 -0.000000
v -0.000000 0.060625 -0.210518
v -0.000000 0.113813 -0.212831
v -0.139185 0.101974 -0.180019
v -0.139185 0.101974 0.180019
v -0.000000 0.113813 0.212831
v -0.117529 0.060772 0.165029
v -0.117529 0.060772 -0.165029
v -0.000000 0.060625 0.210518
v -0.000000 0.272565 -0.117037
v -0.098958 0.269144 -0.085213
v -0.105068 0.273105 0.000000
v -0.098958 0.269144 0.085213
v -0.000000 0.272565 0.117037
v 0.177656 0.165377 0.000000
v 0.134770 0.174730 0.177401
v 0.134770 0.174730 -0.177401
v -0.000000 0.166811 0.238169
v -0.000000 0.166811 -0.238169
v -0.177656 0.165377 0.000000
v -0.134770 0.174730 0.177401
v -0.134770 0.174730 -0.177401
v 0.193768 0.195945 -0.000000
v 0.166222 0.195363 -0.167308
v -0.000000 0.207492 -0.229228
v -0.193768 0.195945 0.000000
v -0.166222 0.195363 -0.167308
v 0.166222 0.195363 0.167308
v -0.000000 0.207492 0.229228
v -0.166222 0.195363 0.167308
v 0.171901 0.236183 0.000000
v 0.127007 0.257673 -0.144685
v -0.000000 0.248690 -0.220072
v -0.171901 0.236183 0.000000
v -0.127007 0.257673 -0.144685
v 0.127007 0.257673 0.144685
v -0.000000 0.248690 0.220072
v -0.127007 0.257673 0.144685
vt 0.175577 0.796023
vt 0.106785 0.766103
vt 0.159379 0.735807
vt 0.172143 0.801171
vt 0.167344 0.799819
vt 0.196405 0.733002
vt 0.219600 0.762000
vt 0.163084 0.797230
vt 0.170042 0.793616
vt 0.164508 0.791209
vt 0.233299 0.821129
vt 0.868550 0.843507
vt 0.897386 0.843820
vt 0.897249 0.892706
vt 0.871153 0.892822
vt 0.835234 0.843507
vt 0.851892 0.844496
vt 0.851892 0.892359
vt 0.832631 0.892822
vt 0.806398 0.843820
vt 0.806535 0.892706
vt 0.133499 0.595377
vt 0.245373 0.620418
vt 0.339970 0.685179
vt 0.000114 0.719708
vt 0.339970 0.867525
vt 0.321490 0.218442
vt 0.424197 0.218899
vt 0.429411 0.293285
vt 0.339193 0.324609
vt 0.575803 0.218899
vt 0.678510 0.218442
vt 0.660808 0.324608
vt 0.570589 0.293285
vt 0.500000 0.421684
vt 0.532920 0.421622
vt 0.527539 0.439956
vt 0.500000 0.439807
vt 0.467081 0.421622
vt 0.472462 0.439956
vt 0.500000 0.217077
vt 0.500000 0.294830
vt 0.851892 0.948953
vt 0.858889 0.948990
vt 0.851892 0.963462
vt 0.844895 0.948990
vt 0.850214 0.963394
vt 0.420028 0.459244
vt 0.431576 0.478478
vt 0.579972 0.459244
vt 0.568424 0.478478
vt 0.834506 0.958779
vt 0.848891 0.966741
vt 0.869278 0.958778
vt 0.853570 0.963394
vt 0.177001 0.790002
vt 0.120484 0.825233
vt 0.172740 0.787413
vt 0.167941 0.786062
vt 0.180706 0.851426
vt 0.143679 0.854231
vt 0.925080 0.845280
vt 0.928543 0.896909
vt 0.778704 0.845280
vt 0.775241 0.896909
vt 0.724876 0.893443
vt 0.763352 0.837231
vt 0.940432 0.837231
vt 0.978908 0.893443
vt 0.094712 0.966815
vt 0.000114 0.902053
vt 0.206586 0.991856
vt 0.218336 0.355134
vt 0.198331 0.234983
vt 0.801669 0.234983
vt 0.781664 0.355134
vt 0.649675 0.576640
vt 0.612231 0.595149
vt 0.613981 0.534419
vt 0.634941 0.512008
vt 0.365059 0.512008
vt 0.386020 0.534419
vt 0.387770 0.595149
vt 0.350326 0.576641
vt 0.088218 0.447079
vt 0.000114 0.221344
vt 0.999886 0.221344
vt 0.911782 0.447079
vt 0.880409 0.988423
vt 0.855227 0.971709
vt 0.880853 0.972993
vt 0.822931 0.972993
vt 0.851892 0.973566
vt 0.823375 0.988424
vt 0.848557 0.971709
vt 0.854893 0.966741
vt 0.923460 0.927438
vt 0.902157 0.950215
vt 0.881015 0.939230
vt 0.892751 0.919682
vt 0.811033 0.919682
vt 0.822769 0.939230
vt 0.801627 0.950215
vt 0.780324 0.927438
vt 0.785319 0.969612
vt 0.747263 0.950801
vt 0.956521 0.950800
vt 0.918465 0.969612
vt 0.869828 0.911723
vt 0.864359 0.930357
vt 0.833956 0.911723
vt 0.839425 0.930357
vt 0.851892 0.912116
vt 0.851892 0.930534
vt 0.697822 0.444776
vt 0.655902 0.489598
vt 0.591520 0.440010
vt 0.614616 0.401543
vt 0.385384 0.401543
vt 0.408480 0.440010
vt 0.344099 0.489598
vt 0.302178 0.444776
vt 0.312882 0.558132
vt 0.237994 0.521114
vt 0.762006 0.521114
vt 0.687118 0.558132
vt 0.549064 0.366620
vt 0.538301 0.403288
vt 0.450936 0.366620
vt 0.461699 0.403288
vt 0.500000 0.367318
vt 0.500000 0.403562
vt 0.891505 0.961604
vt 0.886179 0.967298
vt 0.872212 0.953891
vt 0.875146 0.949004
vt 0.828638 0.949004
vt 0.831572 0.953891
vt 0.817605 0.967298
vt 0.812279 0.961604
vt 0.813861 0.983721
vt 0.804347 0.979018
vt 0.899437 0.979018
vt 0.889923 0.983721
vt 0.861624 0.939674
vt 0.860257 0.944332
vt 0.842160 0.939674
vt 0.843527 0.944332
vt 0.851892 0.939743
vt 0.851892 0.944348
vn 0.0000 -0.5152 -0.8571
vn 0.0000 0.6868 -0.7268
vn 0.6126 0.6183 -0.4923
vn 0.6216 -0.4561 -0.6368
vn 0.7799 -0.6259 0.0000
vn 0.8397 0.5430 0.0000
vn 0.6126 0.6183 0.4923
vn 0.6216 -0.4561 0.6368
vn 0.0000 -1.0000 0.0000
vn 0.0000 -0.5152 0.8571
vn 0.0000 0.6868 0.7268
vn 0.8534 -0.2099 -0.4772
vn 0.0000 -0.1326 -0.9911
vn 0.0000 -0.6999 -0.7142
vn 0.5000 -0.7183 -0.4838
vn 0.8534 -0.2099 0.4772
vn 0.9871 -0.1600 0.0000
vn 0.6724 -0.7401 0.0000
vn 0.5000 -0.7183 0.4838
vn 0.0000 -0.1326 0.9911
vn 0.0000 -0.6999 0.7142
vn 0.7344 -0.2300 0.6386
vn 0.0000 -0.2020 0.9794
vn 0.0000 -0.2020 -0.9794
vn 0.7344 -0.2300 -0.6386
vn 0.7048 0.7093 0.0000
vn 0.4894 0.7684 -0.4124
vn 0.2473 0.9633 -0.1036
vn 0.3157 0.9489 0.0000
vn 0.4894 0.7684 0.4124
vn 0.2473 0.9633 0.1036
vn 0.9781 -0.2081 0.0000
vn 0.0000 1.0000 0.0000
vn 0.0000 0.7205 0.6934
vn 0.0000 0.9826 0.1857
vn 0.0000 0.7205 -0.6934
vn 0.0000 0.9826 -0.1857
vn -0.6216 -0.4561 -0.6368
vn -0.6126 0.6183 -0.4923
vn -0.7799 -0.6259 0.0000
vn -0.6216 -0.4561 0.6368
vn -0.6126 0.6183 0.4923
vn -0.8397 0.5430 0.0000
vn -0.8534 -0.2099 -0.4772
vn -0.5000 -0.7183 -0.4838
vn -0.8534 -0.2099 0.4772
vn -0.5000 -0.7183 0.4838
vn -0.6724 -0.7401 0.0000
vn -0.9871 -0.1600 0.0000
vn -0.7344 -0.2300 0.6386
vn -0.7344 -0.2300 -0.6386
vn -0.7048 0.7093 0.0000
vn -0.3157 0.9489 0.0000
vn -0.2473 0.9633 -0.1036
vn -0.4894 0.7684 -0.4124
vn -0.4894 0.7684 0.4124
vn -0.2473 0.9633 0.1036
vn -0.9781 -0.2081 0.0000
vn -0.6534 -0.1354 -0.7448
vn 0.0000 -0.0356 -0.9994
vn 0.0000 -0.0356 0.9994
vn -0.6534 -0.1354 0.7448
vn -0.9272 -0.3746 0.0000
vn 0.6534 -0.1354 -0.7448
vn 0.6534 -0.1354 0.7448
vn 0.9272 -0.3746 0.0000
vn -0.8461 -0.0137 -0.5328
vn 0.0000 0.2715 -0.9624
vn 0.0000 0.2715 0.9624
vn -0.8461 -0.0137 0.5328
vn -0.9970 -0.0765 0.0000
vn 0.8461 -0.0137 -0.5328
vn 0.8461 -0.0137 0.5328
vn 0.9970 -0.0765 0.0000
usemtl Material
s 1
f 24/1/1 25/2/2 4/3/3 3/4/4
f 5/5/5 6/6/6 2/7/7 1/8/8
f 30/9/9 5/5/5 1/8/8 26/10/10
f 1/8/8 2/7/7 27/11/11 26/10/10
f 24/1/1 3/4/4 5/5/5 30/9/9
f 3/4/4 4/3/3 6/6/6 5/5/5
f 8/12/12 32/13/13 38/14/14 15/15/15
f 9/16/16 7/17/17 10/18/18 14/19/19
f 35/20/20 9/16/16 14/19/19 45/21/21
f 7/17/17 8/12/12 15/15/15 10/18/18
f 6/6/6 4/3/3 8/22/12 7/23/17
f 2/7/7 6/6/6 7/23/17 9/24/16
f 4/3/3 25/2/2 32/25/13 8/22/12
f 27/11/11 2/7/7 9/24/16 35/26/20
f 45/27/21 14/28/19 13/29/22 42/30/23
f 15/31/15 38/32/14 39/33/24 12/34/25
f 67/35/26 68/36/27 16/37/28 17/38/29
f 72/39/30 67/35/26 17/38/29 18/40/31
f 14/28/19 10/41/18 11/42/32 13/29/22
f 10/41/18 15/31/15 12/34/25 11/42/32
f 17/43/29 16/44/28 19/45/33
f 18/46/31 17/43/29 19/47/33
f 73/48/34 72/39/30 18/40/31 50/49/35
f 68/36/27 69/50/36 46/51/37 16/37/28
f 50/52/35 18/46/31 19/53/33
f 16/44/28 46/54/37 19/55/33
f 24/1/1 22/56/38 23/57/39 25/2/2
f 28/58/40 20/59/41 21/60/42 29/61/43
f 30/9/9 26/10/10 20/59/41 28/58/40
f 20/59/41 26/10/10 27/11/11 21/60/42
f 24/1/1 30/9/9 28/58/40 22/56/38
f 22/56/38 28/58/40 29/61/43 23/57/39
f 33/62/44 44/63/45 38/14/14 32/13/13
f 34/64/46 43/65/47 36/66/48 31/67/49
f 35/20/20 45/21/21 43/65/47 34/64/46
f 31/68/49 36/69/48 44/63/45 33/62/44
f 29/61/43 31/70/49 33/71/44 23/57/39
f 21/60/42 34/72/46 31/70/49 29/61/43
f 23/57/39 33/71/44 32/25/13 25/2/2
f 27/11/11 35/26/20 34/72/46 21/60/42
f 45/27/21 42/30/23 41/73/50 43/74/47
f 44/75/45 40/76/51 39/33/24 38/32/14
f 70/77/52 48/78/53 47/79/54 71/80/55
f 74/81/56 49/82/57 48/83/53 70/84/52
f 43/74/47 41/73/50 37/85/58 36/86/48
f 36/87/48 37/88/58 40/76/51 44/75/45
f 48/89/53 19/90/33 47/91/54
f 49/92/57 19/93/33 48/94/53
f 73/48/34 50/49/35 49/82/57 74/81/56
f 71/80/55 47/79/54 46/51/37 69/50/36
f 50/52/35 19/95/33 49/92/57
f 47/91/54 19/96/33 46/54/37
f 40/97/51 58/98/59 55/99/60 39/100/24
f 42/101/23 54/102/61 57/103/62 41/104/50
f 41/104/50 57/103/62 56/105/63 37/106/58
f 37/107/58 56/108/63 58/98/59 40/97/51
f 12/109/25 39/100/24 55/99/60 53/110/64
f 42/101/23 13/111/22 52/112/65 54/102/61
f 13/111/22 11/113/32 51/114/66 52/112/65
f 11/113/32 12/109/25 53/110/64 51/114/66
f 58/115/59 63/116/67 61/117/68 55/118/60
f 54/119/61 65/120/69 66/121/70 57/122/62
f 57/122/62 66/121/70 62/123/71 56/124/63
f 56/125/63 62/126/71 63/116/67 58/115/59
f 53/127/64 55/118/60 61/117/68 60/128/72
f 54/119/61 52/129/65 64/130/73 65/120/69
f 52/129/65 51/131/66 59/132/74 64/130/73
f 51/131/66 53/127/64 60/128/72 59/132/74
f 63/133/67 71/134/55 69/135/36 61/136/68
f 65/137/69 73/138/34 74/139/56 66/140/70
f 66/140/70 74/139/56 70/141/52 62/142/71
f 62/143/71 70/144/52 71/134/55 63/133/67
f 60/145/72 61/136/68 69/135/36 68/146/27
f 65/137/69 64/147/73 72/148/30 73/138/34
f 64/147/73 59/149/74 67/150/26 72/148/30
f 59/149/74 60/145/72 68/146/27 67/150/26
