# Blender v2.79 (sub 0) OBJ File: ''
# www.blender.org
mtllib TreePointy.mtl
o Cube_Cube.004
v 0.296336 -0.143158 0.245050
v 0.252950 0.452288 0.170868
v 0.296336 -0.143158 -0.245050
v 0.252950 0.452288 -0.170869
v 0.325413 -0.172235 -0.000000
v 0.273225 0.452288 -0.000000
v 0.242704 0.668909 -0.000000
v 0.226745 0.668909 -0.134494
v 0.226745 0.668909 0.134494
v 0.771564 0.608968 -0.000000
v 0.699439 1.181118 -0.000000
v 0.562174 1.151237 -0.472337
v 0.562174 1.151237 0.472336
v 0.582645 0.643880 0.517386
v 0.582645 0.643880 -0.517387
v 0.335847 2.169489 -0.192581
v 0.356582 2.182410 -0.000000
v 0.335846 2.169489 0.192581
v 0.088447 2.502326 -0.046675
v 0.088551 2.505458 -0.000000
v 0.088447 2.502326 0.046675
v -0.296336 -0.143158 0.245050
v -0.252950 0.452288 0.170868
v -0.296336 -0.143158 -0.245050
v -0.252950 0.452288 -0.170869
v 0.000000 -0.172235 -0.274127
v 0.000000 0.452288 -0.191144
v 0.000000 -0.172235 0.274127
v 0.000000 0.452288 0.191143
v -0.325413 -0.172235 -0.000000
v -0.273225 0.452288 -0.000000
v 0.000000 -0.237870 -0.000000
v -0.242704 0.668909 -0.000000
v 0.000000 0.668909 -0.150453
v -0.226745 0.668909 -0.134494
v -0.226745 0.668909 0.134494
v 0.000000 0.668909 0.150453
v -0.771564 0.608968 -0.000000
v -0.699439 1.181118 -0.000000
v 0.000000 0.629786 -0.674867
v 0.000000 1.195590 -0.578611
v -0.562174 1.151237 -0.472337
v -0.562174 1.151237 0.472336
v 0.000000 1.195590 0.578610
v 0.000000 2.505031 -0.064106
v -0.582645 0.643880 0.517386
v -0.582645 0.643880 -0.517387
v 0.000000 0.629786 0.674867
v 0.000000 2.180649 -0.264503
v -0.335847 2.169489 -0.192581
v -0.356582 2.182410 -0.000000
v -0.335846 2.169489 0.192581
v 0.000000 2.180649 0.264503
v -0.088447 2.502326 -0.046675
v -0.088551 2.505458 -0.000000
v -0.088447 2.502326 0.046675
v 0.000000 2.505031 0.064106
v 0.000000 2.514235 -0.000000
vt 0.175577 0.796023
vt 0.106785 0.766103
vt 0.159379 0.735807
vt 0.172143 0.801171
vt 0.167344 0.799819
vt 0.196405 0.733002
vt 0.219600 0.762000
vt 0.163084 0.797230
vt 0.170042 0.793616
vt 0.164508 0.791209
vt 0.233299 0.821129
vt 0.565559 0.024813
vt 0.679047 0.026046
vt 0.678510 0.218442
vt 0.575803 0.218899
vt 0.434442 0.024813
vt 0.500000 0.028707
vt 0.500000 0.217077
vt 0.424197 0.218899
vt 0.320953 0.026046
vt 0.321490 0.218442
vt 0.133499 0.595377
vt 0.245373 0.620418
vt 0.339970 0.685179
vt 0.000114 0.719708
vt 0.339970 0.867525
vt 0.429411 0.293285
vt 0.339193 0.324609
vt 0.660808 0.324608
vt 0.570589 0.293285
vt 0.500000 0.294830
vt 0.527539 0.439956
vt 0.500000 0.439807
vt 0.472462 0.439956
vt 0.506604 0.496644
vt 0.500000 0.496910
vt 0.493396 0.496644
vt 0.431576 0.478478
vt 0.568424 0.478478
vt 0.500000 0.511487
vt 0.488191 0.509814
vt 0.511810 0.509814
vt 0.177001 0.790002
vt 0.120484 0.825233
vt 0.172740 0.787413
vt 0.167941 0.786062
vt 0.180706 0.851426
vt 0.143679 0.854231
vt 0.788039 0.031791
vt 0.801669 0.234983
vt 0.211961 0.031791
vt 0.198331 0.234983
vt 0.000114 0.221344
vt 0.151542 0.000114
vt 0.848459 0.000114
vt 0.999886 0.221344
vt 0.094712 0.966815
vt 0.000114 0.902053
vt 0.206586 0.991856
vt 0.218336 0.355134
vt 0.781664 0.355134
vt 0.911782 0.447079
vt 0.612231 0.595149
vt 0.613981 0.534419
vt 0.386020 0.534419
vt 0.387770 0.595149
vt 0.088218 0.447079
vt 0.500000 0.536675
vt 0.513126 0.529369
vt 0.486875 0.529369
vn 0.0000 -0.5915 -0.8063
vn 0.0000 0.1549 -0.9879
vn 0.6868 0.1690 -0.7069
vn 0.6175 -0.4324 -0.6571
vn 0.7845 -0.6200 0.0000
vn 0.9937 0.1120 0.0000
vn 0.6868 0.1690 0.7069
vn 0.6175 -0.4324 0.6571
vn 0.0000 -1.0000 0.0000
vn 0.0000 -0.5915 0.8063
vn 0.0000 0.1549 0.9879
vn 0.3438 -0.8605 -0.3760
vn 0.0000 -0.6856 -0.7279
vn 0.0000 -0.6309 -0.7758
vn 0.5413 -0.5742 -0.6142
vn 0.3438 -0.8605 0.3760
vn 0.6885 -0.7252 0.0000
vn 0.7614 -0.6482 0.0000
vn 0.5413 -0.5742 0.6142
vn 0.0000 -0.6856 0.7279
vn 0.0000 -0.6309 0.7758
vn 0.6676 0.2239 0.7100
vn 0.0000 0.2231 0.9748
vn 0.0000 0.2231 -0.9748
vn 0.6676 0.2239 -0.7100
vn 0.9792 0.2028 0.0000
vn 0.6394 0.4709 -0.6077
vn 0.8779 0.4788 0.0000
vn 0.6394 0.4709 0.6077
vn 0.4062 0.8060 -0.4305
vn 0.4556 0.8902 0.0000
vn 0.4062 0.8060 0.4305
vn 0.0000 0.4134 0.9105
vn 0.0000 0.4134 -0.9105
vn 0.0000 1.0000 0.0000
vn 0.0000 0.8228 0.5682
vn 0.0000 0.8228 -0.5682
vn -0.6175 -0.4324 -0.6571
vn -0.6868 0.1690 -0.7069
vn -0.7845 -0.6200 0.0000
vn -0.6175 -0.4324 0.6571
vn -0.6868 0.1690 0.7069
vn -0.9937 0.1120 0.0000
vn -0.3438 -0.8605 -0.3760
vn -0.5413 -0.5742 -0.6142
vn -0.3438 -0.8605 0.3760
vn -0.5413 -0.5742 0.6142
vn -0.7614 -0.6482 0.0000
vn -0.6885 -0.7252 0.0000
vn -0.6676 0.2239 0.7100
vn -0.6676 0.2239 -0.7100
vn -0.9792 0.2028 0.0000
vn -0.8779 0.4788 0.0000
vn -0.6394 0.4709 -0.6077
vn -0.6394 0.4709 0.6077
vn -0.4556 0.8902 0.0000
vn -0.4062 0.8060 -0.4305
vn -0.4062 0.8060 0.4305
usemtl Material
s 1
f 26/1/1 27/2/2 4/3/3 3/4/4
f 5/5/5 6/6/6 2/7/7 1/8/8
f 32/9/9 5/5/5 1/8/8 28/10/10
f 1/8/8 2/7/7 29/11/11 28/10/10
f 26/1/1 3/4/4 5/5/5 32/9/9
f 3/4/4 4/3/3 6/6/6 5/5/5
f 8/12/12 34/13/13 40/14/14 15/15/15
f 9/16/16 7/17/17 10/18/18 14/19/19
f 37/20/20 9/16/16 14/19/19 48/21/21
f 7/17/17 8/12/12 15/15/15 10/18/18
f 6/6/6 4/3/3 8/22/12 7/23/17
f 2/7/7 6/6/6 7/23/17 9/24/16
f 4/3/3 27/2/2 34/25/13 8/22/12
f 29/11/11 2/7/7 9/24/16 37/26/20
f 48/21/21 14/19/19 13/27/22 44/28/23
f 15/15/15 40/14/14 41/29/24 12/30/25
f 11/31/26 12/30/25 16/32/27 17/33/28
f 13/27/22 11/31/26 17/33/28 18/34/29
f 14/19/19 10/18/18 11/31/26 13/27/22
f 10/18/18 15/15/15 12/30/25 11/31/26
f 17/33/28 16/32/27 19/35/30 20/36/31
f 18/34/29 17/33/28 20/36/31 21/37/32
f 44/28/23 13/27/22 18/34/29 53/38/33
f 12/30/25 41/29/24 49/39/34 16/32/27
f 20/36/31 58/40/35 57/41/36 21/37/32
f 19/35/30 45/42/37 58/40/35 20/36/31
f 53/38/33 18/34/29 21/37/32 57/41/36
f 16/32/27 49/39/34 45/42/37 19/35/30
f 26/1/1 24/43/38 25/44/39 27/2/2
f 30/45/40 22/46/41 23/47/42 31/48/43
f 32/9/9 28/10/10 22/46/41 30/45/40
f 22/46/41 28/10/10 29/11/11 23/47/42
f 26/1/1 32/9/9 30/45/40 24/43/38
f 24/43/38 30/45/40 31/48/43 25/44/39
f 35/49/44 47/50/45 40/14/14 34/13/13
f 36/51/46 46/52/47 38/53/48 33/54/49
f 37/20/20 48/21/21 46/52/47 36/51/46
f 33/55/49 38/56/48 47/50/45 35/49/44
f 31/48/43 33/57/49 35/58/44 25/44/39
f 23/47/42 36/59/46 33/57/49 31/48/43
f 25/44/39 35/58/44 34/25/13 27/2/2
f 29/11/11 37/26/20 36/59/46 23/47/42
f 48/21/21 44/28/23 43/60/50 46/52/47
f 47/50/45 42/61/51 41/29/24 40/14/14
f 39/62/52 51/63/53 50/64/54 42/61/51
f 43/60/50 52/65/55 51/66/53 39/67/52
f 46/52/47 43/60/50 39/67/52 38/53/48
f 38/56/48 39/62/52 42/61/51 47/50/45
f 51/63/53 55/68/56 54/69/57 50/64/54
f 52/65/55 56/70/58 55/68/56 51/66/53
f 44/28/23 53/38/33 52/65/55 43/60/50
f 42/61/51 50/64/54 49/39/34 41/29/24
f 55/68/56 56/70/58 57/41/36 58/40/35
f 54/69/57 55/68/56 58/40/35 45/42/37
f 53/38/33 57/41/36 56/70/58 52/65/55
f 50/64/54 54/69/57 45/42/37 49/39/34
